<?xml version="1.0" encoding="UTF-8"?>
<!--Generator: Apple Native CoreSVG 341-->
<!DOCTYPE svg
PUBLIC "-//W3C//DTD SVG 1.1//EN"
       "http://www.w3.org/Graphics/SVG/1.1/DTD/svg11.dtd">
<svg version="1.1" xmlns="http://www.w3.org/2000/svg" xmlns:xlink="http://www.w3.org/1999/xlink" viewBox="0 0 3300 2200">
 <!--glyph: "100356", point size: 100.0, font version: "20.0d10e1", template writer version: "138.0.0"-->
 <style>.SFSymbolsPreviewWireframe {fill:none;opacity:1.0;stroke:black;stroke-width:0.5}
</style>
 <g id="Notes">
  <rect height="2200" id="artboard" style="fill:white;opacity:1" width="3300" x="0" y="0"/>
  <line style="fill:none;stroke:black;opacity:1;stroke-width:0.5;" x1="263" x2="3036" y1="292" y2="292"/>
  <text style="stroke:none;fill:black;font-family:sans-serif;font-size:13;font-weight:bold;" transform="matrix(1 0 0 1 263 322)">Weight/Scale Variations</text>
  <text style="stroke:none;fill:black;font-family:sans-serif;font-size:13;text-anchor:middle;" transform="matrix(1 0 0 1 559.711 322)">Ultralight</text>
  <text style="stroke:none;fill:black;font-family:sans-serif;font-size:13;text-anchor:middle;" transform="matrix(1 0 0 1 856.422 322)">Thin</text>
  <text style="stroke:none;fill:black;font-family:sans-serif;font-size:13;text-anchor:middle;" transform="matrix(1 0 0 1 1153.13 322)">Light</text>
  <text style="stroke:none;fill:black;font-family:sans-serif;font-size:13;text-anchor:middle;" transform="matrix(1 0 0 1 1449.84 322)">Regular</text>
  <text style="stroke:none;fill:black;font-family:sans-serif;font-size:13;text-anchor:middle;" transform="matrix(1 0 0 1 1746.56 322)">Medium</text>
  <text style="stroke:none;fill:black;font-family:sans-serif;font-size:13;text-anchor:middle;" transform="matrix(1 0 0 1 2043.27 322)">Semibold</text>
  <text style="stroke:none;fill:black;font-family:sans-serif;font-size:13;text-anchor:middle;" transform="matrix(1 0 0 1 2339.98 322)">Bold</text>
  <text style="stroke:none;fill:black;font-family:sans-serif;font-size:13;text-anchor:middle;" transform="matrix(1 0 0 1 2636.69 322)">Heavy</text>
  <text style="stroke:none;fill:black;font-family:sans-serif;font-size:13;text-anchor:middle;" transform="matrix(1 0 0 1 2933.4 322)">Black</text>
  <line style="fill:none;stroke:black;opacity:1;stroke-width:0.5;" x1="263" x2="3036" y1="1903" y2="1903"/>
  <g transform="matrix(0.2 0 0 0.2 263 1933)">
   <path d="m46.2402 4.15039c21.7773 0 39.4531-17.627 39.4531-39.4043s-17.6758-39.4043-39.4531-39.4043c-21.7285 0-39.4043 17.627-39.4043 39.4043s17.6758 39.4043 39.4043 39.4043Zm0-7.42188c-17.6758 0-31.9336-14.3066-31.9336-31.9824s14.2578-31.9824 31.9336-31.9824 31.9824 14.3066 31.9824 31.9824-14.3066 31.9824-31.9824 31.9824Zm-17.9688-31.9824c0 2.14844 1.51367 3.61328 3.75977 3.61328h10.498v10.5957c0 2.19727 1.46484 3.71094 3.61328 3.71094 2.24609 0 3.71094-1.51367 3.71094-3.71094v-10.5957h10.5957c2.19727 0 3.71094-1.46484 3.71094-3.61328 0-2.19727-1.51367-3.71094-3.71094-3.71094h-10.5957v-10.5469c0-2.24609-1.46484-3.75977-3.71094-3.75977-2.14844 0-3.61328 1.51367-3.61328 3.75977v10.5469h-10.498c-2.24609 0-3.75977 1.51367-3.75977 3.71094Z"/>
  </g>
  <g transform="matrix(0.2 0 0 0.2 281.506 1933)">
   <path d="m58.5449 14.5508c27.4902 0 49.8047-22.3145 49.8047-49.8047s-22.3145-49.8047-49.8047-49.8047-49.8047 22.3145-49.8047 49.8047 22.3145 49.8047 49.8047 49.8047Zm0-8.30078c-22.9492 0-41.5039-18.5547-41.5039-41.5039s18.5547-41.5039 41.5039-41.5039 41.5039 18.5547 41.5039 41.5039-18.5547 41.5039-41.5039 41.5039Zm-22.6562-41.5039c0 2.39258 1.66016 4.00391 4.15039 4.00391h14.3555v14.4043c0 2.44141 1.66016 4.15039 4.05273 4.15039 2.44141 0 4.15039-1.66016 4.15039-4.15039v-14.4043h14.4043c2.44141 0 4.15039-1.61133 4.15039-4.00391 0-2.44141-1.70898-4.15039-4.15039-4.15039h-14.4043v-14.3555c0-2.49023-1.70898-4.19922-4.15039-4.19922-2.39258 0-4.05273 1.70898-4.05273 4.19922v14.3555h-14.3555c-2.49023 0-4.15039 1.70898-4.15039 4.15039Z"/>
  </g>
  <g transform="matrix(0.2 0 0 0.2 304.924 1933)">
   <path d="m74.8535 28.3203c35.1074 0 63.623-28.4668 63.623-63.5742s-28.5156-63.623-63.623-63.623-63.5742 28.5156-63.5742 63.623 28.4668 63.5742 63.5742 63.5742Zm0-9.08203c-30.127 0-54.4922-24.3652-54.4922-54.4922s24.3652-54.4922 54.4922-54.4922 54.4922 24.3652 54.4922 54.4922-24.3652 54.4922-54.4922 54.4922Zm-28.8574-54.4922c0 2.58789 1.85547 4.39453 4.58984 4.39453h19.7266v19.7754c0 2.68555 1.85547 4.58984 4.44336 4.58984 2.68555 0 4.54102-1.85547 4.54102-4.58984v-19.7754h19.7754c2.68555 0 4.58984-1.80664 4.58984-4.39453 0-2.73438-1.85547-4.58984-4.58984-4.58984h-19.7754v-19.7266c0-2.73438-1.85547-4.63867-4.54102-4.63867-2.58789 0-4.44336 1.9043-4.44336 4.63867v19.7266h-19.7266c-2.73438 0-4.58984 1.85547-4.58984 4.58984Z"/>
  </g>
  <text style="stroke:none;fill:black;font-family:sans-serif;font-size:13;font-weight:bold;" transform="matrix(1 0 0 1 263 1953)">Design Variations</text>
  <text style="stroke:none;fill:black;font-family:sans-serif;font-size:13;" transform="matrix(1 0 0 1 263 1971)">Symbols are supported in up to nine weights and three scales.</text>
  <text style="stroke:none;fill:black;font-family:sans-serif;font-size:13;" transform="matrix(1 0 0 1 263 1989)">For optimal layout with text and other symbols, vertically align</text>
  <text style="stroke:none;fill:black;font-family:sans-serif;font-size:13;" transform="matrix(1 0 0 1 263 2007)">symbols with the adjacent text.</text>
  <line style="fill:none;stroke:#00AEEF;stroke-width:0.5;opacity:1.0;" x1="776" x2="776" y1="1919" y2="1933"/>
  <g transform="matrix(0.2 0 0 0.2 776 1933)">
   <path d="m16.5527 0.78125c2.58789 0 3.85742-0.976562 4.78516-3.71094l6.29883-17.2363h28.8086l6.29883 17.2363c0.927734 2.73438 2.19727 3.71094 4.73633 3.71094 2.58789 0 4.24805-1.5625 4.24805-4.00391 0-0.830078-0.146484-1.61133-0.537109-2.63672l-22.9004-60.9863c-1.12305-2.97852-3.125-4.49219-6.25-4.49219-3.02734 0-5.07812 1.46484-6.15234 4.44336l-22.9004 61.084c-0.390625 1.02539-0.537109 1.80664-0.537109 2.63672 0 2.44141 1.5625 3.95508 4.10156 3.95508Zm13.4766-28.3691 11.8652-32.8613h0.244141l11.8652 32.8613Z"/>
  </g>
  <line style="fill:none;stroke:#00AEEF;stroke-width:0.5;opacity:1.0;" x1="792.836" x2="792.836" y1="1919" y2="1933"/>
  <text style="stroke:none;fill:black;font-family:sans-serif;font-size:13;font-weight:bold;" transform="matrix(1 0 0 1 776 1953)">Margins</text>
  <text style="stroke:none;fill:black;font-family:sans-serif;font-size:13;" transform="matrix(1 0 0 1 776 1971)">Leading and trailing margins on the left and right side of each symbol</text>
  <text style="stroke:none;fill:black;font-family:sans-serif;font-size:13;" transform="matrix(1 0 0 1 776 1989)">can be adjusted by modifying the x-location of the margin guidelines.</text>
  <text style="stroke:none;fill:black;font-family:sans-serif;font-size:13;" transform="matrix(1 0 0 1 776 2007)">Modifications are automatically applied proportionally to all</text>
  <text style="stroke:none;fill:black;font-family:sans-serif;font-size:13;" transform="matrix(1 0 0 1 776 2025)">scales and weights.</text>
  <g transform="matrix(0.2 0 0 0.2 1289 1933)">
   <path d="m14.209 9.32617 8.49609 8.54492c4.29688 4.3457 9.22852 4.05273 13.8672-1.07422l53.4668-58.9355-4.83398-4.88281-53.0762 58.3984c-1.75781 2.00195-3.41797 2.49023-5.76172 0.146484l-5.85938-5.81055c-2.34375-2.29492-1.80664-4.00391 0.195312-5.81055l57.373-54.0039-4.88281-4.83398-57.959 54.4434c-4.93164 4.58984-5.32227 9.47266-1.02539 13.8184Zm32.0801-90.9668c-2.09961 2.05078-2.24609 4.93164-1.07422 6.88477 1.17188 1.80664 3.4668 2.97852 6.68945 2.14844 7.32422-1.70898 14.9414-2.00195 22.0703 2.68555l-2.92969 7.27539c-1.70898 4.15039-0.830078 7.08008 1.85547 9.81445l11.4746 11.5723c2.44141 2.44141 4.49219 2.53906 7.32422 2.05078l5.32227-0.976562 3.32031 3.36914-0.195312 2.7832c-0.195312 2.49023 0.439453 4.39453 2.88086 6.78711l3.80859 3.71094c2.39258 2.39258 5.46875 2.53906 7.8125 0.195312l14.5508-14.5996c2.34375-2.34375 2.24609-5.32227-0.146484-7.71484l-3.85742-3.80859c-2.39258-2.39258-4.24805-3.17383-6.64062-2.97852l-2.88086 0.244141-3.22266-3.17383 1.2207-5.61523c0.634766-2.83203-0.146484-5.0293-3.07617-7.95898l-10.9863-10.9375c-16.6992-16.6016-38.8672-16.2109-53.3203-1.75781Zm7.4707 1.85547c12.1582-8.88672 28.6133-7.37305 39.7461 3.75977l12.1582 12.0605c1.17188 1.17188 1.36719 2.09961 1.02539 3.80859l-1.61133 7.42188 7.51953 7.42188 4.93164-0.292969c1.26953-0.0488281 1.66016 0.0488281 2.63672 1.02539l2.88086 2.88086-12.207 12.207-2.88086-2.88086c-0.976562-0.976562-1.12305-1.36719-1.07422-2.68555l0.341797-4.88281-7.4707-7.42188-7.61719 1.26953c-1.61133 0.341797-2.34375 0.195312-3.56445-0.976562l-10.0098-10.0098c-1.26953-1.17188-1.41602-2.00195-0.634766-3.85742l4.39453-10.4492c-7.8125-7.27539-17.9688-10.4004-28.125-7.42188-0.78125 0.195312-1.07422-0.439453-0.439453-0.976562Z"/>
  </g>
  <text style="stroke:none;fill:black;font-family:sans-serif;font-size:13;font-weight:bold;" transform="matrix(1 0 0 1 1289 1953)">Exporting</text>
  <text style="stroke:none;fill:black;font-family:sans-serif;font-size:13;" transform="matrix(1 0 0 1 1289 1971)">Symbols should be outlined when exporting to ensure the</text>
  <text style="stroke:none;fill:black;font-family:sans-serif;font-size:13;" transform="matrix(1 0 0 1 1289 1989)">design is preserved when submitting to Xcode.</text>
  <text id="template-version" style="stroke:none;fill:black;font-family:sans-serif;font-size:13;text-anchor:end;" transform="matrix(1 0 0 1 3036 1933)">Template v.6.0</text>
  <text style="stroke:none;fill:black;font-family:sans-serif;font-size:13;text-anchor:end;" transform="matrix(1 0 0 1 3036 1951)">Requires Xcode 16 or greater</text>
  <text id="descriptive-name" style="stroke:none;fill:black;font-family:sans-serif;font-size:13;text-anchor:end;" transform="matrix(1 0 0 1 3036 1969)">Generated from envelope.fill</text>
  <text style="stroke:none;fill:black;font-family:sans-serif;font-size:13;text-anchor:end;" transform="matrix(1 0 0 1 3036 1987)">Typeset at 100.0 points</text>
  <text style="stroke:none;fill:black;font-family:sans-serif;font-size:13;" transform="matrix(1 0 0 1 263 726)">Small</text>
  <text style="stroke:none;fill:black;font-family:sans-serif;font-size:13;" transform="matrix(1 0 0 1 263 1156)">Medium</text>
  <text style="stroke:none;fill:black;font-family:sans-serif;font-size:13;" transform="matrix(1 0 0 1 263 1586)">Large</text>
 </g>
 <g id="Guides">
  <g id="H-reference" style="fill:#27AAE1;stroke:none;" transform="matrix(1 0 0 1 339 696)">
   <path d="M0.993654 0L3.63775 0L29.3281-67.1323L30.0303-67.1323L30.0303-70.459L28.1226-70.459ZM11.6885-24.4799L46.9815-24.4799L46.2315-26.7285L12.4385-26.7285ZM55.1196 0L57.7637 0L30.6382-70.459L29.4326-70.459L29.4326-67.1323Z"/>
  </g>
  <line id="Baseline-S" style="fill:none;stroke:#27AAE1;opacity:1;stroke-width:0.5;" x1="263" x2="3036" y1="696" y2="696"/>
  <line id="Capline-S" style="fill:none;stroke:#27AAE1;opacity:1;stroke-width:0.5;" x1="263" x2="3036" y1="625.541" y2="625.541"/>
  <g id="H-reference" style="fill:#27AAE1;stroke:none;" transform="matrix(1 0 0 1 339 1126)">
   <path d="M0.993654 0L3.63775 0L29.3281-67.1323L30.0303-67.1323L30.0303-70.459L28.1226-70.459ZM11.6885-24.4799L46.9815-24.4799L46.2315-26.7285L12.4385-26.7285ZM55.1196 0L57.7637 0L30.6382-70.459L29.4326-70.459L29.4326-67.1323Z"/>
  </g>
  <line id="Baseline-M" style="fill:none;stroke:#27AAE1;opacity:1;stroke-width:0.5;" x1="263" x2="3036" y1="1126" y2="1126"/>
  <line id="Capline-M" style="fill:none;stroke:#27AAE1;opacity:1;stroke-width:0.5;" x1="263" x2="3036" y1="1055.54" y2="1055.54"/>
  <g id="H-reference" style="fill:#27AAE1;stroke:none;" transform="matrix(1 0 0 1 339 1556)">
   <path d="M0.993654 0L3.63775 0L29.3281-67.1323L30.0303-67.1323L30.0303-70.459L28.1226-70.459ZM11.6885-24.4799L46.9815-24.4799L46.2315-26.7285L12.4385-26.7285ZM55.1196 0L57.7637 0L30.6382-70.459L29.4326-70.459L29.4326-67.1323Z"/>
  </g>
  <line id="Baseline-L" style="fill:none;stroke:#27AAE1;opacity:1;stroke-width:0.5;" x1="263" x2="3036" y1="1556" y2="1556"/>
  <line id="Capline-L" style="fill:none;stroke:#27AAE1;opacity:1;stroke-width:0.5;" x1="263" x2="3036" y1="1485.54" y2="1485.54"/>
  <line id="right-margin-Regular-M" style="fill:none;stroke:#00AEEF;stroke-width:0.5;opacity:1.0;" x1="1521.2" x2="1521.2" y1="1030.79" y2="1150.12"/>
  <line id="left-margin-Regular-M" style="fill:none;stroke:#00AEEF;stroke-width:0.5;opacity:1.0;" x1="1378.49" x2="1378.49" y1="1030.79" y2="1150.12"/>
 </g>
 <g id="Symbols">
  <g id="Black-L" transform="matrix(1 0 0 1 2836.34 1556)">
   <path class="SFSymbolsPreviewWireframe" d="M97.0472-31.9326C98.7133-31.9326 100.141-32.564 102.117-34.3196L165.917-91.512C162.547-93.0629 158.784-93.7979 154.26-93.7979L39.8556-93.7979C35.3312-93.7979 31.5682-93.0629 28.1777-91.512L91.9983-34.3196C93.9744-32.564 95.402-31.9326 97.0472-31.9326ZM17.4751 9.22795L64.7554-37.9904L17.6647-80.1813C16.6957-77.5957 16.084-74.1786 16.084-70.1095L16.084-0.27146C16.084 3.38426 16.5945 6.50296 17.4751 9.22795ZM39.2728 23.4169L154.841 23.4169C159.418 23.4169 163.321 22.5431 166.432 21.0479L117.724-27.6404L111.114-21.7064C106.408-17.4806 102.306-15.7394 97.0472-15.7394C91.8093-15.7394 87.7074-17.4806 83.0015-21.7064L76.37-27.6404L27.662 21.0479C30.7731 22.5431 34.6977 23.4169 39.2728 23.4169ZM176.639 9.22795C177.5 6.50296 178.031 3.38426 178.031-0.27146L178.031-70.1095C178.031-74.1786 177.42-77.5957 176.449-80.1813L129.36-37.9904Z"/>
  </g>
  <g id="Heavy-L" transform="matrix(1 0 0 1 2540.87 1556)">
   <path class="SFSymbolsPreviewWireframe" d="M95.8014-30.9763C97.5723-30.9763 99.1422-31.6579 101.126-33.4306L164.674-90.1885C161.307-91.9047 157.511-92.7081 152.802-92.7081L38.8315-92.7081C34.1218-92.7081 30.3263-91.9047 26.9287-90.1885L90.5071-33.4306C92.4909-31.6579 94.0608-30.9763 95.8014-30.9763ZM17.5634 9.17349L64.7115-37.9131L17.6703-79.9008C16.741-77.5941 16.084-74.2199 16.084-70.0814L16.084-0.308395C16.084 3.44275 16.6304 6.53669 17.5634 9.17349ZM37.9863 22.3183L153.641 22.3183C158.257 22.3183 162.065 21.3899 165.002 19.8539L116.473-28.6508L109.235-22.1725C104.781-18.1894 100.745-16.484 95.8014-16.484C90.8883-16.484 86.8521-18.1894 82.3977-22.1725L75.1304-28.6508L26.6011 19.8539C29.5379 21.3899 33.3764 22.3183 37.9863 22.3183ZM174.064 9.17349C174.973 6.53669 175.549 3.44275 175.549-0.308395L175.549-70.0814C175.549-74.2199 174.892-77.5941 173.957-79.9008L126.922-37.9131Z"/>
  </g>
  <g id="Bold-L" transform="matrix(1 0 0 1 2245.68 1556)">
   <path class="SFSymbolsPreviewWireframe" d="M94.2794-29.778C96.1808-29.778 97.9125-30.5211 99.9264-32.3317L163.108-88.574C159.777-90.4754 155.951-91.3633 151.056-91.3633L37.5412-91.3633C32.6458-91.3633 28.8193-90.4754 25.4512-88.574L88.6703-32.3317C90.6842-30.5211 92.4159-29.778 94.2794-29.778ZM17.7157 9.17145L64.7695-37.8134L17.7301-79.6593C16.8023-77.6164 16.084-74.2662 16.084-70.058L16.084-0.347036C16.084 3.5269 16.6839 6.61992 17.7157 9.17145ZM36.4776 20.9583L152.106 20.9583C156.797 20.9583 160.483 19.9607 163.219 18.371L114.898-29.9257L106.915-22.801C102.76-19.1027 98.8458-17.4508 94.2794-17.4508C89.7509-17.4508 85.8365-19.1027 81.6821-22.801L73.6607-29.9257L25.3393 18.371C28.0758 19.9607 31.7994 20.9583 36.4776 20.9583ZM170.868 9.17145C171.875 6.61992 172.513 3.5269 172.513-0.347036L172.513-70.058C172.513-74.2662 171.794-77.6164 170.853-79.6593L123.827-37.8134Z"/>
  </g>
  <g id="Semibold-L" transform="matrix(1 0 0 1 1950.01 1556)">
   <path class="SFSymbolsPreviewWireframe" d="M93.2301-28.952C95.2215-28.952 97.0648-29.7374 99.0994-31.5742L162.028-87.4611C158.723-89.49 154.875-90.4362 149.852-90.4362L36.6517-90.4362C31.6282-90.4362 27.7803-89.49 24.4326-87.4611L87.4041-31.5742C89.4387-29.7374 91.282-28.952 93.2301-28.952ZM17.8208 9.17005L64.8094-37.7446L17.7714-79.4928C16.8445-77.6318 16.084-74.2981 16.084-70.0419L16.084-0.373675C16.084 3.58492 16.7208 6.6773 17.8208 9.17005ZM35.4375 20.0206L151.047 20.0206C155.791 20.0206 159.392 18.9754 161.991 17.3487L113.813-30.8045L105.315-23.2343C101.367-19.7323 97.5366-18.1173 93.2301-18.1173C88.9669-18.1173 85.1363-19.7323 81.1887-23.2343L72.6475-30.8045L24.4694 17.3487C27.0679 18.9754 30.7121 20.0206 35.4375 20.0206ZM168.664 9.17005C169.739 6.6773 170.419 3.58492 170.419-0.373675L170.419-70.0419C170.419-74.2981 169.659-77.6318 168.714-79.4928L121.694-37.7446Z"/>
  </g>
  <g id="Medium-L" transform="matrix(1 0 0 1 1654.1 1556)">
   <path class="SFSymbolsPreviewWireframe" d="M92.4344-28.3256C94.4942-28.3256 96.422-29.1432 98.4724-30.9997L161.209-86.6172C157.924-88.7428 154.06-89.7332 148.939-89.7332L35.9773-89.7332C30.8567-89.7332 26.9926-88.7428 23.6603-86.6172L86.4439-30.9997C88.4943-29.1432 90.4221-28.3256 92.4344-28.3256ZM17.9004 9.16899L64.8397-37.6925L17.8026-79.3666C16.8766-77.6434 16.084-74.3222 16.084-70.0296L16.084-0.393873C16.084 3.62892 16.7487 6.72081 17.9004 9.16899ZM34.6489 19.3097L150.245 19.3097C155.029 19.3097 158.565 18.2284 161.059 16.5736L112.99-31.4709L104.102-23.5628C100.311-20.2097 96.5439-18.6227 92.4344-18.6227C88.3724-18.6227 84.6054-20.2097 80.8147-23.5628L71.8793-31.4709L23.8098 16.5736C26.3036 18.2284 29.8878 19.3097 34.6489 19.3097ZM166.993 9.16899C168.12 6.72081 168.832 3.62892 168.832-0.393873L168.832-70.0296C168.832-74.3222 168.04-77.6434 167.091-79.3666L120.077-37.6925Z"/>
  </g>
  <g id="Regular-L" transform="matrix(1 0 0 1 1358.42 1556)">
   <path class="SFSymbolsPreviewWireframe" d="M91.3966-27.5086C93.5454-27.5086 95.5836-28.3681 97.6545-30.2505L160.14-85.5165C156.881-87.7682 152.996-88.8162 147.748-88.8162L35.0976-88.8162C29.8503-88.8162 25.965-87.7682 22.6529-85.5165L85.1916-30.2505C87.2625-28.3681 89.3006-27.5086 91.3966-27.5086ZM18.0043 9.1676L64.8793-37.6244L17.8434-79.2019C16.9184-77.6587 16.084-74.3538 16.084-70.0137L16.084-0.420219C16.084 3.6863 16.7852 6.77756 18.0043 9.1676ZM33.6202 18.3823L149.198 18.3823C154.034 18.3823 157.487 17.2539 159.844 15.5626L111.916-32.3401L102.519-23.9913C98.9332-20.8324 95.2492-19.2818 91.3966-19.2818C87.5969-19.2818 83.9129-20.8324 80.3268-23.9913L70.8772-32.3401L22.9495 15.5626C25.3068 17.2539 28.8125 18.3823 33.6202 18.3823ZM164.814 9.1676C166.008 6.77756 166.762 3.6863 166.762-0.420219L166.762-70.0137C166.762-74.3538 165.928-77.6587 164.975-79.2019L117.967-37.6244Z"/>
  </g>
  <g id="Light-L" transform="matrix(1 0 0 1 1062.64 1556)">
   <path class="SFSymbolsPreviewWireframe" d="M90.4806-26.5925C92.7248-26.5925 94.782-27.4902 97.0056-29.5062L158.881-84.5622C155.87-86.814 152.022-87.9192 146.928-87.9192L34.067-87.9192C28.9724-87.9192 25.1253-86.814 22.0804-84.5622L83.9892-29.5062C86.2128-27.4902 88.27-26.5925 90.4806-26.5925ZM18.386 9.58748L65.6427-37.529L18.2251-79.7172C16.9947-77.8304 16.084-74.3538 16.084-70.0709L16.084-0.401134C16.084 3.81989 16.8806 7.10201 18.386 9.58748ZM33.124 17.4472L147.824 17.4472C152.888 17.4472 156.227 16.2615 158.546 14.5129L110.676-33.3707L100.954-24.7547C97.5018-21.6912 94.1613-20.2361 90.4806-20.2361C86.8335-20.2361 83.493-21.6912 80.0405-24.7547L70.2856-33.3707L22.4151 14.5129C24.7342 16.2615 28.1063 17.4472 33.124 17.4472ZM162.562 9.58748C164.08 7.10201 164.911 3.81989 164.911-0.401134L164.911-70.0709C164.911-74.3538 164-77.8304 162.723-79.7172L115.352-37.529Z"/>
  </g>
  <g id="Thin-L" transform="matrix(1 0 0 1 767.149 1556)">
   <path class="SFSymbolsPreviewWireframe" d="M89.2689-25.3809C91.6394-25.3809 93.7218-26.3291 96.1474-28.5218L157.215-83.3001C154.532-85.5519 150.735-86.7329 145.842-86.7329L32.7039-86.7329C27.8113-86.7329 24.0146-85.5519 21.3231-83.3001L82.399-28.5218C84.8245-26.3291 86.907-25.3809 89.2689-25.3809ZM18.8908 10.1428L66.6523-37.4028L18.73-80.3988C17.0957-78.0576 16.084-74.3538 16.084-70.1466L16.084-0.375892C16.084 3.99659 17.0068 7.53112 18.8908 10.1428ZM32.4677 16.2103L146.007 16.2103C151.374 16.2103 154.561 14.9489 156.83 13.1246L109.035-34.7337L98.8845-25.7644C95.6086-22.8271 92.7225-21.4982 89.2689-21.4982C85.8238-21.4982 82.9377-22.8271 79.6618-25.7644L69.5031-34.7337L21.7083 13.1246C23.977 14.9489 27.1724 16.2103 32.4677 16.2103ZM159.584 10.1428C161.531 7.53112 162.462 3.99659 162.462-0.375892L162.462-70.1466C162.462-74.3538 161.451-78.0576 159.744-80.3988L111.894-37.4028Z"/>
  </g>
  <g id="Ultralight-L" transform="matrix(1 0 0 1 471.065 1556)">
   <path class="SFSymbolsPreviewWireframe" d="M88.6484-24.7603C91.0834-24.7603 93.1788-25.7343 95.7078-28.0175L156.361-82.6537C153.846-84.9054 150.076-86.1252 145.286-86.1252L32.0058-86.1252C27.2165-86.1252 23.4458-84.9054 20.9352-82.6537L81.5844-28.0175C84.1134-25.7343 86.2088-24.7603 88.6484-24.7603ZM19.1494 10.4272L67.1695-37.3382L18.9885-80.7478C17.1474-78.174 16.084-74.3538 16.084-70.1854L16.084-0.362963C16.084 4.08709 17.0715 7.75091 19.1494 10.4272ZM32.1316 15.5768L145.076 15.5768C150.598 15.5768 153.708 14.2766 155.95 12.4135L108.194-35.4319L97.8243-26.2815C94.639-23.4089 91.9856-22.1446 88.6484-22.1446C85.3067-22.1446 82.6533-23.4089 79.4679-26.2815L69.1023-35.4319L21.3463 12.4135C23.5891 14.2766 26.694 15.5768 32.1316 15.5768ZM158.058 10.4272C160.225 7.75091 161.208 4.08709 161.208-0.362963L161.208-70.1854C161.208-74.3538 160.145-78.174 158.219-80.7478L110.123-37.3382Z"/>
  </g>
  <g id="Black-M" transform="matrix(1 0 0 1 2857.26 1126)">
   <path class="SFSymbolsPreviewWireframe" d="M76.1331-33.3731C77.3467-33.3731 78.3331-33.8243 79.878-35.1878L129.44-79.8421C126.861-80.9015 123.979-81.4199 120.653-81.4199L31.6184-81.4199C28.293-81.4199 25.4108-80.9015 22.8263-79.8421L72.3937-35.1878C73.9386-33.8243 74.925-33.3731 76.1331-33.3731ZM13.5145-0.682757L50.3098-37.4219L13.7324-70.3664C12.9064-68.077 12.4609-65.3694 12.4609-62.2844L12.4609-8.11171C12.4609-5.34596 12.8386-2.88264 13.5145-0.682757ZM31.4647 11.0238L120.807 11.0238C124.35 11.0238 127.441 10.386 129.996 9.25492L92.114-28.6212L87.4868-24.4554C83.643-20.9859 80.4551-19.619 76.1331-19.619C71.8166-19.619 68.6288-20.9859 64.7849-24.4554L60.1523-28.6212L22.2704 9.25492C24.8252 10.386 27.9216 11.0238 31.4647 11.0238ZM138.758-0.682757C139.428-2.88264 139.811-5.34596 139.811-8.11171L139.811-62.2844C139.811-65.3694 139.365-68.077 138.54-70.3664L101.962-37.4219Z"/>
  </g>
  <g id="Heavy-M" transform="matrix(1 0 0 1 2561.68 1126)">
   <path class="SFSymbolsPreviewWireframe" d="M74.9998-32.5227C76.307-32.5227 77.4307-33.0194 78.9692-34.3874L128.341-78.6363C125.742-79.8574 122.824-80.4374 119.304-80.4374L30.7123-80.4374C27.1917-80.4374 24.2742-79.8574 21.6581-78.6363L71.0468-34.3874C72.5853-33.0194 73.7089-32.5227 74.9998-32.5227ZM13.5656-0.774729L50.1965-37.3552L13.7027-70.0447C12.9435-68.0596 12.4609-65.4099 12.4609-62.2517L12.4609-8.14958C12.4609-5.30111 12.8648-2.8796 13.5656-0.774729ZM30.2528 10.0361L119.761 10.0361C123.321 10.0361 126.329 9.35021 128.717 8.18454L91.0045-29.5139L85.7949-24.8406C82.1846-21.5996 79.0293-20.2589 74.9998-20.2589C70.9867-20.2589 67.8314-21.5996 64.221-24.8406L58.995-29.5139L21.2825 8.18454C23.6705 9.35021 26.6951 10.0361 30.2528 10.0361ZM136.448-0.774729C137.135-2.8796 137.555-5.30111 137.555-8.14958L137.555-62.2517C137.555-65.4099 137.072-68.0596 136.311-70.0447L99.8195-37.3552Z"/>
  </g>
  <g id="Bold-M" transform="matrix(1 0 0 1 2266.23 1126)">
   <path class="SFSymbolsPreviewWireframe" d="M73.732-31.5714C75.144-31.5714 76.4213-32.1191 77.9524-33.492L127.113-77.2874C124.49-78.6894 121.533-79.3382 117.794-79.3382L29.6986-79.3382C25.9598-79.3382 23.0028-78.6894 20.3514-77.2874L69.5402-33.492C71.0713-32.1191 72.3486-31.5714 73.732-31.5714ZM13.6228-0.877612L50.0697-37.2806L13.6695-69.6848C12.9851-68.0402 12.4609-65.4551 12.4609-62.215L12.4609-8.19194C12.4609-5.25094 12.8942-2.8762 13.6228-0.877612ZM28.8972 8.93128L118.59 8.93128C122.169 8.93128 125.085 8.19156 127.287 6.98716L89.7635-30.5124L83.9023-25.2716C80.5532-22.286 77.4343-20.9747 73.732-20.9747C70.0583-20.9747 66.9394-22.286 63.5903-25.2716L57.7005-30.5124L20.1774 6.98716C22.3789 8.19156 25.3231 8.93128 28.8972 8.93128ZM133.865-0.877612C134.57-2.8762 135.032-5.25094 135.032-8.19194L135.032-62.215C135.032-65.4551 134.507-68.0402 133.818-69.6848L97.4228-37.2806Z"/>
  </g>
  <g id="Semibold-M" transform="matrix(1 0 0 1 1970.39 1126)">
   <path class="SFSymbolsPreviewWireframe" d="M72.858-30.9156C74.3422-30.9156 75.7253-31.4984 77.2515-32.8747L126.265-76.3575C123.627-77.8841 120.643-78.5805 116.753-78.5805L28.9998-78.5805C25.1105-78.5805 22.1262-77.8841 19.4505-76.3575L68.5015-32.8747C70.0277-31.4984 71.4108-30.9156 72.858-30.9156ZM13.6622-0.948539L49.9824-37.2292L13.6466-69.4367C13.0138-68.0267 12.4609-65.4863 12.4609-62.1898L12.4609-8.22114C12.4609-5.21636 12.9144-2.87385 13.6622-0.948539ZM27.9627 8.1696L117.783 8.1696C121.376 8.1696 124.228 7.39279 126.3 6.1617L88.9079-31.2008L82.5976-25.5687C79.4285-22.7592 76.3347-21.4682 72.858-21.4682C69.4183-21.4682 66.3245-22.7592 63.1554-25.5687L56.808-31.2008L19.4156 6.1617C21.4884 7.39279 24.3773 8.1696 27.9627 8.1696ZM132.084-0.948539C132.802-2.87385 133.292-5.21636 133.292-8.22114L133.292-62.1898C133.292-65.4863 132.739-68.0267 132.099-69.4367L95.7706-37.2292Z"/>
  </g>
  <g id="Medium-M" transform="matrix(1 0 0 1 1674.34 1126)">
   <path class="SFSymbolsPreviewWireframe" d="M72.1953-30.4184C73.7342-30.4184 75.1977-31.0278 76.72-32.4067L125.623-75.6524C122.972-77.2736 119.967-78.0059 115.964-78.0059L28.47-78.0059C24.4665-78.0059 21.4616-77.2736 18.7674-75.6524L67.7139-32.4067C69.2363-31.0278 70.6997-30.4184 72.1953-30.4184ZM13.6921-1.00232L49.9161-37.1902L13.6292-69.2485C13.0355-68.0165 12.4609-65.5099 12.4609-62.1706L12.4609-8.24328C12.4609-5.19013 12.9298-2.87207 13.6921-1.00232ZM27.2541 7.59207L117.171 7.59207C120.774 7.59207 123.577 6.78714 125.553 5.53579L88.2592-31.7228L81.6082-25.7939C78.5757-23.118 75.5009-21.8423 72.1953-21.8423C68.933-21.8423 65.8583-23.118 62.8257-25.7939L56.1313-31.7228L18.8379 5.53579C20.8132 6.78714 23.6601 7.59207 27.2541 7.59207ZM130.733-1.00232C131.461-2.87207 131.973-5.19013 131.973-8.24328L131.973-62.1706C131.973-65.5099 131.398-68.0165 130.796-69.2485L94.5179-37.1902Z"/>
  </g>
  <g id="Regular-M" transform="matrix(1 0 0 1 1378.49 1126)">
   <path class="SFSymbolsPreviewWireframe" d="M71.3309-29.7698C72.9412-29.7698 74.5094-30.414 76.0268-31.7962L124.785-74.7327C122.119-76.4772 119.087-77.2565 114.935-77.2565L27.7789-77.2565C23.6266-77.2565 20.5947-76.4772 17.8764-74.7327L66.6867-31.7962C68.2041-30.414 69.7722-29.7698 71.3309-29.7698ZM13.7311-1.07247L49.8297-37.1393L13.6065-69.0031C13.0639-68.0033 12.4609-65.5407 12.4609-62.1456L12.4609-8.27216C12.4609-5.15593 12.9498-2.86975 13.7311-1.07247ZM26.3298 6.83876L116.373 6.83876C119.989 6.83876 122.729 5.99715 124.577 4.7194L87.413-32.4036L80.3178-26.0878C77.4634-23.586 74.4134-22.3304 71.3309-22.3304C68.3-22.3304 65.2501-23.586 62.3956-26.0878L55.2487-32.4036L18.0845 4.7194C19.9325 5.99715 22.7247 6.83876 26.3298 6.83876ZM128.972-1.07247C129.712-2.86975 130.253-5.15593 130.253-8.27216L130.253-62.1456C130.253-65.5407 129.65-68.0033 129.096-69.0031L92.8838-37.1393Z"/>
  </g>
  <g id="Light-M" transform="matrix(1 0 0 1 1082.61 1126)">
   <path class="SFSymbolsPreviewWireframe" d="M70.5095-28.9485C72.2055-28.9485 73.7907-29.6269 75.445-31.1289L123.656-73.8772C121.212-75.6217 118.214-76.4523 114.199-76.4523L26.8549-76.4523C22.8395-76.4523 19.8419-75.6217 17.3631-73.8772L65.6087-31.1289C67.263-29.6269 68.8482-28.9485 70.5095-28.9485ZM14.0734-0.696026L50.5141-37.0538L13.9487-69.4651C13.1323-68.1573 12.4609-65.5407 12.4609-62.197L12.4609-8.25505C12.4609-5.03615 13.0354-2.57887 14.0734-0.696026ZM25.8849 6.00032L115.141 6.00032C118.962 6.00032 121.6 5.10738 123.414 3.7783L86.3008-33.3276L78.9147-26.7722C76.18-24.356 73.4381-23.1859 70.5095-23.1859C67.6156-23.1859 64.8737-24.356 62.139-26.7722L54.7183-33.3276L17.6053 3.7783C19.4192 5.10738 22.0915 6.00032 25.8849 6.00032ZM126.953-0.696026C127.984-2.57887 128.593-5.03615 128.593-8.25505L128.593-62.197C128.593-65.5407 127.921-68.1573 127.077-69.4651L90.5396-37.0538Z"/>
  </g>
  <g id="Thin-M" transform="matrix(1 0 0 1 786.993 1126)">
   <path class="SFSymbolsPreviewWireframe" d="M69.4233-27.8622C71.2323-27.8622 72.8403-28.5859 74.6756-30.2463L122.162-72.7456C120.012-74.4902 117.06-75.3887 113.226-75.3887L25.6328-75.3887C21.7985-75.3887 18.8461-74.4902 16.6842-72.7456L64.1829-30.2463C66.0183-28.5859 67.6262-27.8622 69.4233-27.8622ZM14.526-0.198153L51.4193-36.9406L14.4014-70.0762C13.2228-68.3609 12.4609-65.5407 12.4609-62.2648L12.4609-8.23242C12.4609-4.87774 13.1485-2.19415 14.526-0.198153ZM25.2965 4.89143L113.512 4.89143C117.604 4.89143 120.106 3.93059 121.875 2.53362L84.8298-34.5497L77.059-27.6774C74.4827-25.3744 72.1482-24.3175 69.4233-24.3175C66.7104-24.3175 64.3758-25.3744 61.7995-27.6774L54.0167-34.5497L16.9717 2.53362C18.7402 3.93059 21.2542 4.89143 25.2965 4.89143ZM124.282-0.198153C125.698-2.19415 126.398-4.87774 126.398-8.23242L126.398-62.2648C126.398-65.5407 125.636-68.3609 124.407-70.0762L87.4392-36.9406Z"/>
  </g>
  <g id="Ultralight-M" transform="matrix(1 0 0 1 490.844 1126)">
   <path class="SFSymbolsPreviewWireframe" d="M68.8669-27.3058C70.7339-27.3058 72.3534-28.0527 74.2815-29.7942L121.397-72.1661C119.398-73.9106 116.469-74.8439 112.727-74.8439L25.0069-74.8439C21.2653-74.8439 18.3361-73.9106 16.3365-72.1661L63.4527-29.7942C65.3808-28.0527 67.0003-27.3058 68.8669-27.3058ZM14.7578 0.0568549L51.883-36.8827L14.6332-70.3891C13.2692-68.4653 12.4609-65.5407 12.4609-62.2996L12.4609-8.22083C12.4609-4.7966 13.2065-1.9971 14.7578 0.0568549ZM24.9951 4.32345L112.677 4.32345C116.909 4.32345 119.341 3.32784 121.087 1.8961L84.0764-35.1756L76.1085-28.1411C73.6134-25.896 71.4875-24.897 68.8669-24.897C66.2467-24.897 64.1208-25.896 61.6256-28.1411L53.6574-35.1756L16.6471 1.8961C18.3925 3.32784 20.8253 4.32345 24.9951 4.32345ZM122.915 0.0568549C124.527-1.9971 125.273-4.7966 125.273-8.22083L125.273-62.2996C125.273-65.5407 124.465-68.4653 123.039-70.3891L85.8512-36.8827Z"/>
  </g>
  <g id="Black-S" transform="matrix(1 0 0 1 2873.44 696)">
   <path class="SFSymbolsPreviewWireframe" d="M59.9609-33.9844C60.8887-33.9844 61.6211-34.3262 62.8418-35.4004L101.709-70.5078C99.707-71.2891 97.4609-71.6797 94.9219-71.6797L25-71.6797C22.4609-71.6797 20.2148-71.2891 18.2129-70.5078L57.0801-35.4004C58.3008-34.3262 59.0332-33.9844 59.9609-33.9844ZM10.5957-8.10547L39.502-36.9629L10.791-62.8906C10.1074-60.9863 9.76562-58.8379 9.76562-56.4453L9.76562-13.9648C9.76562-11.8164 10.0586-9.86328 10.5957-8.10547ZM25 1.26953L94.9219 1.26953C97.7051 1.26953 100.146 0.78125 102.197-0.0976562L72.4609-29.834L68.9941-26.709C65.918-23.9258 63.4277-22.8516 59.9609-22.8516C56.4941-22.8516 54.0039-23.9258 50.9277-26.709L47.4609-29.834L17.7246-0.0976562C19.7754 0.78125 22.2168 1.26953 25 1.26953ZM109.326-8.10547C109.863-9.86328 110.156-11.8164 110.156-13.9648L110.156-56.4453C110.156-58.8379 109.814-60.9863 109.131-62.8906L80.4199-36.9629Z"/>
  </g>
  <g id="Heavy-S" transform="matrix(1 0 0 1 2577.59 696)">
   <path class="SFSymbolsPreviewWireframe" d="M59.0966-33.3621C60.0935-33.3621 60.9412-33.7384 62.1388-34.8011L100.914-69.5859C98.8657-70.5054 96.5851-70.9421 93.8616-70.9421L24.3431-70.9421C21.6197-70.9421 19.339-70.5054 17.2794-69.5859L56.0659-34.8011C57.2636-33.7384 58.1112-33.3621 59.0966-33.3621ZM10.5957-8.23224L39.3176-36.9168L10.7219-62.5564C10.1305-60.9518 9.76562-58.8725 9.76562-56.4107L9.76562-13.9994C9.76562-11.7934 10.0701-9.89785 10.5957-8.23224ZM24.0204 0.531965L94.1843 0.531965C96.956 0.531965 99.3398 0.00911081 101.252-0.892844L71.6542-30.4794L67.7264-26.951C64.8347-24.3522 62.3329-23.2895 59.0966-23.2895C55.8718-23.2895 53.3701-24.3522 50.4783-26.951L46.539-30.4794L16.9409-0.892844C18.8534 0.00911081 21.2487 0.531965 24.0204 0.531965ZM107.609-8.23224C108.123-9.89785 108.439-11.7934 108.439-13.9994L108.439-56.4107C108.439-58.8725 108.074-60.9518 107.483-62.5564L78.8872-36.9168Z"/>
  </g>
  <g id="Bold-S" transform="matrix(1 0 0 1 2281.84 696)">
   <path class="SFSymbolsPreviewWireframe" d="M58.1299-32.666C59.2041-32.666 60.1807-33.0811 61.3525-34.1309L100.024-68.5547C97.9248-69.6289 95.6055-70.1172 92.6758-70.1172L23.6084-70.1172C20.6787-70.1172 18.3594-69.6289 16.2354-68.5547L54.9316-34.1309C56.1035-33.0811 57.0801-32.666 58.1299-32.666ZM10.5957-8.37402L39.1113-36.8652L10.6445-62.1826C10.1562-60.9131 9.76562-58.9111 9.76562-56.3721L9.76562-14.0381C9.76562-11.7676 10.083-9.93652 10.5957-8.37402ZM22.9248-0.292969L93.3594-0.292969C96.1182-0.292969 98.4375-0.854492 100.195-1.78223L70.752-31.2012L66.3086-27.2217C63.623-24.8291 61.1084-23.7793 58.1299-23.7793C55.1758-23.7793 52.6611-24.8291 49.9756-27.2217L45.5078-31.2012L16.0645-1.78223C17.8223-0.854492 20.166-0.292969 22.9248-0.292969ZM105.688-8.37402C106.177-9.93652 106.519-11.7676 106.519-14.0381L106.519-56.3721C106.519-58.9111 106.128-60.9131 105.64-62.1826L77.1729-36.8652Z"/>
  </g>
  <g id="Semibold-S" transform="matrix(1 0 0 1 1985.79 696)">
   <path class="SFSymbolsPreviewWireframe" d="M57.4634-32.1861C58.5909-32.1861 59.6563-32.6278 60.8104-33.6688L99.4112-67.8438C97.2761-69.0246 94.9301-69.5484 91.8582-69.5484L23.1019-69.5484C20.03-69.5484 17.684-69.0246 15.5155-67.8438L54.1496-33.6688C55.3037-32.6278 56.3691-32.1861 57.4634-32.1861ZM10.5957-8.47178L38.9691-36.8297L10.5912-61.9249C10.174-60.8864 9.76562-58.9378 9.76562-56.3454L9.76562-14.0647C9.76562-11.7498 10.0919-9.96318 10.5957-8.47178ZM22.1694-0.861719L92.7906-0.861719C95.5405-0.861719 97.8154-1.4499 99.4666-2.39541L70.1299-31.6988L65.3311-27.4083C62.7877-25.1579 60.2642-24.117 57.4634-24.117C54.6959-24.117 52.1724-25.1579 49.629-27.4083L44.7969-31.6988L15.4602-2.39541C17.1113-1.4499 19.4195-0.861719 22.1694-0.861719ZM104.364-8.47178C104.835-9.96318 105.194-11.7498 105.194-14.0647L105.194-56.3454C105.194-58.9378 104.786-60.8864 104.369-61.9249L75.9909-36.8297Z"/>
  </g>
  <g id="Medium-S" transform="matrix(1 0 0 1 1689.58 696)">
   <path class="SFSymbolsPreviewWireframe" d="M56.958-31.8223C58.126-31.8223 59.2588-32.2842 60.3994-33.3184L98.9463-67.3047C96.7842-68.5664 94.418-69.1172 91.2383-69.1172L22.7178-69.1172C19.5381-69.1172 17.1719-68.5664 14.9697-67.3047L53.5566-33.3184C54.6973-32.2842 55.8301-31.8223 56.958-31.8223ZM10.5957-8.5459L38.8613-36.8027L10.5508-61.7295C10.1875-60.8662 9.76562-58.958 9.76562-56.3252L9.76562-14.085C9.76562-11.7363 10.0986-9.9834 10.5957-8.5459ZM21.5967-1.29297L92.3594-1.29297C95.1025-1.29297 97.3438-1.90137 98.9141-2.86035L69.6582-32.0762L64.5898-27.5498C62.1543-25.4072 59.624-24.373 56.958-24.373C54.332-24.373 51.8018-25.4072 49.3662-27.5498L44.2578-32.0762L15.002-2.86035C16.5723-1.90137 18.8535-1.29297 21.5967-1.29297ZM103.36-8.5459C103.817-9.9834 104.19-11.7363 104.19-14.085L104.19-56.3252C104.19-58.958 103.769-60.8662 103.405-61.7295L75.0947-36.8027Z"/>
  </g>
  <g id="Regular-S" transform="matrix(1 0 0 1 1393.52 696)">
   <path class="SFSymbolsPreviewWireframe" d="M56.2988-31.3477C57.5195-31.3477 58.7402-31.8359 59.8633-32.8613L98.3398-66.6016C96.1426-67.9688 93.75-68.5547 90.4297-68.5547L22.2168-68.5547C18.8965-68.5547 16.5039-67.9688 14.2578-66.6016L52.7832-32.8613C53.9062-31.8359 55.127-31.3477 56.2988-31.3477ZM10.5957-8.64258L38.7207-36.7676L10.498-61.4746C10.2051-60.8398 9.76562-58.9844 9.76562-56.2988L9.76562-14.1113C9.76562-11.7188 10.1074-10.0098 10.5957-8.64258ZM20.8496-1.85547L91.7969-1.85547C94.5312-1.85547 96.7285-2.49023 98.1934-3.4668L69.043-32.5684L63.623-27.7344C61.3281-25.7324 58.7891-24.707 56.2988-24.707C53.8574-24.707 51.3184-25.7324 49.0234-27.7344L43.5547-32.5684L14.4043-3.4668C15.8691-2.49023 18.1152-1.85547 20.8496-1.85547ZM102.051-8.64258C102.49-10.0098 102.881-11.7188 102.881-14.1113L102.881-56.2988C102.881-58.9844 102.441-60.8398 102.148-61.4746L73.9258-36.7676Z"/>
  </g>
  <g id="Light-S" transform="matrix(1 0 0 1 1097.54 696)">
   <path class="SFSymbolsPreviewWireframe" d="M55.5723-30.6211C56.8687-30.6211 58.1045-31.1397 59.3486-32.271L97.3408-65.8447C95.3403-67.2119 92.978-67.8433 89.7788-67.8433L21.3994-67.8433C18.2002-67.8433 15.8379-67.2119 13.8037-65.8447L51.8296-32.271C53.0737-31.1397 54.3096-30.6211 55.5723-30.6211ZM10.8984-8.30957L39.3262-36.6919L10.8008-61.8833C10.2656-60.9761 9.76562-58.9844 9.76562-56.3442L9.76562-14.0962C9.76562-11.6128 10.1831-9.75244 10.8984-8.30957ZM20.4561-2.59716L90.707-2.59716C93.6231-2.59716 95.7295-3.27734 97.1641-4.29931L68.0591-33.3857L62.3818-28.3398C60.1929-26.4136 57.9263-25.4639 55.5723-25.4639C53.252-25.4639 50.9854-26.4136 48.7964-28.3398L43.0855-33.3857L13.9805-4.29931C15.415-3.27734 17.5552-2.59716 20.4561-2.59716ZM100.265-8.30957C100.961-9.75244 101.413-11.6128 101.413-14.0962L101.413-56.3442C101.413-58.9844 100.913-60.9761 100.362-61.8833L71.8521-36.6919Z"/>
  </g>
  <g id="Thin-S" transform="matrix(1 0 0 1 801.804 696)">
   <path class="SFSymbolsPreviewWireframe" d="M54.6113-29.6602C56.0078-29.6602 57.2637-30.2188 58.668-31.4902L96.0195-64.8438C94.2793-66.211 91.957-66.9024 88.918-66.9024L20.3184-66.9024C17.2793-66.9024 14.957-66.211 13.2031-64.8438L50.5684-31.4902C51.9727-30.2188 53.2285-29.6602 54.6113-29.6602ZM11.2988-7.86915L40.1269-36.5918L11.2012-62.4238C10.3457-61.1562 9.76562-58.9844 9.76562-56.4043L9.76562-14.0762C9.76562-11.4727 10.2832-9.41211 11.2988-7.86915ZM19.9356-3.57811L89.2656-3.57811C92.4219-3.57811 94.4082-4.31834 95.8028-5.40038L66.7578-34.4668L60.7403-29.1406C58.6914-27.3144 56.7852-26.4648 54.6113-26.4648C52.4512-26.4648 50.5449-27.3144 48.4961-29.1406L42.4649-34.4668L13.4199-5.40038C14.8145-4.31834 16.8145-3.57811 19.9356-3.57811ZM97.9024-7.86915C98.9395-9.41211 99.4707-11.4727 99.4707-14.0762L99.4707-56.4043C99.4707-58.9844 98.8907-61.1562 98-62.4238L69.1094-36.5918Z"/>
  </g>
  <g id="Ultralight-S" transform="matrix(1 0 0 1 505.59 696)">
   <path class="SFSymbolsPreviewWireframe" d="M54.1192-29.168C55.5669-29.168 56.833-29.7471 58.3193-31.0903L95.3428-64.3311C93.7359-65.6983 91.4341-66.4204 88.4771-66.4204L19.7647-66.4204C16.8076-66.4204 14.5059-65.6983 12.8955-64.3311L49.9224-31.0903C51.4087-29.7471 52.6748-29.168 54.1192-29.168ZM11.5039-7.64356L40.5371-36.5405L11.4062-62.7007C10.3867-61.2485 9.76562-58.9844 9.76562-56.4351L9.76562-14.0659C9.76562-11.4009 10.3345-9.2378 11.5039-7.64356ZM19.669-4.08055L88.5274-4.08055C91.8067-4.08055 93.7315-4.85154 95.1055-5.96434L66.0913-35.0205L59.8994-29.5508C57.9224-27.7759 56.2007-26.9775 54.1192-26.9775C52.041-26.9775 50.3193-27.7759 48.3423-29.5508L42.147-35.0205L13.1328-5.96434C14.5068-4.85154 16.4351-4.08055 19.669-4.08055ZM96.6924-7.64356C97.9038-9.2378 98.4761-11.4009 98.4761-14.0659L98.4761-56.4351C98.4761-58.9844 97.855-61.2485 96.7901-62.7007L67.7046-36.5405Z"/>
  </g>
 </g>
</svg>
